<?xml version="1.0" encoding="UTF-8" standalone="no"?>
<svg
   width="1224"
   height="1230.5409"
   viewBox="0 0 1224 1230.5409"
   version="1.1"
   id="svg10"
   sodipodi:docname="ads_partial_logo_dark_background.svg"
   inkscape:version="1.3.2 (091e20e, 2023-11-25)"
   xmlns:inkscape="http://www.inkscape.org/namespaces/inkscape"
   xmlns:sodipodi="http://sodipodi.sourceforge.net/DTD/sodipodi-0.dtd"
   xmlns:xlink="http://www.w3.org/1999/xlink"
   xmlns="http://www.w3.org/2000/svg"
   xmlns:svg="http://www.w3.org/2000/svg"
   xmlns:rdf="http://www.w3.org/1999/02/22-rdf-syntax-ns#"
   xmlns:cc="http://creativecommons.org/ns#"
   xmlns:dc="http://purl.org/dc/elements/1.1/"
   xmlns:sketch="http://www.bohemiancoding.com/sketch/ns">
  <sodipodi:namedview
     id="namedview10"
     pagecolor="#ffffff"
     bordercolor="#000000"
     borderopacity="0.25"
     inkscape:showpageshadow="2"
     inkscape:pageopacity="0.0"
     inkscape:pagecheckerboard="0"
     inkscape:deskcolor="#d1d1d1"
     inkscape:zoom="0.4724615"
     inkscape:cx="524.9105"
     inkscape:cy="623.33122"
     inkscape:window-width="1512"
     inkscape:window-height="916"
     inkscape:window-x="0"
     inkscape:window-y="38"
     inkscape:window-maximized="0"
     inkscape:current-layer="svg10" />
  <!-- Generator: Sketch 3.5.1 (25234) - http://www.bohemiancoding.com/sketch -->
  <title
     id="title1">bbb_logo</title>
  <desc
     id="desc1">Created with Sketch.</desc>
  <defs
     id="defs6">
    <linearGradient
       x1="1"
       y1="0.80464506"
       x2="0"
       y2="0.21014063"
       id="linearGradient-1">
      <stop
         stop-color="#409FFF"
         offset="0%"
         id="stop1" />
      <stop
         stop-color="#2157CF"
         offset="100%"
         id="stop2" />
    </linearGradient>
    <linearGradient
       x1="857"
       y1="753.41543"
       x2="337"
       y2="444.27313"
       id="linearGradient-2"
       gradientUnits="userSpaceOnUse">
      <stop
         stop-color="#001CFF"
         stop-opacity="0"
         offset="0%"
         id="stop3" />
      <stop
         stop-color="#5AEAFF"
         stop-opacity="0.201341712"
         offset="100%"
         id="stop4" />
    </linearGradient>
    <radialGradient
       cx="782.09375"
       cy="355.4375"
       fx="782.09375"
       fy="355.4375"
       r="280.20672"
       id="radialGradient-3"
       gradientUnits="userSpaceOnUse">
      <stop
         stop-color="#FFFFFF"
         offset="0%"
         id="stop5" />
      <stop
         stop-color="#FFFFFF"
         offset="100%"
         id="stop6" />
    </radialGradient>
    <linearGradient
       inkscape:collect="always"
       xlink:href="#linearGradient-1"
       id="linearGradient12"
       x1="897.05835"
       y1="777.83399"
       x2="297"
       y2="421.09664"
       gradientUnits="userSpaceOnUse" />
    <linearGradient
       inkscape:collect="always"
       xlink:href="#linearGradient-1"
       id="linearGradient13"
       x1="897.05835"
       y1="777.83399"
       x2="297"
       y2="421.09664"
       gradientUnits="userSpaceOnUse" />
  </defs>
  <g
     id="Page-1"
     stroke="none"
     stroke-width="1"
     fill="none"
     fill-rule="evenodd"
     sketch:type="MSPage"
     transform="translate(-298.76157,-0.00514221)">
    <g
       id="bbb_logo"
       sketch:type="MSLayerGroup"
       transform="translate(-290,-225)">
      <g
         id="background"
         transform="rotate(58,697.52071,1258.85)"
         sketch:type="MSShapeGroup">
        <circle
           id="Oval-12"
           fill="#343434"
           cx="612"
           cy="612"
           r="612" />
        <circle
           id="circle6"
           fill="#343434"
           cx="612"
           cy="612"
           r="612" />
        <path
           d="M 721.7544,97.467514 C 959.57332,147.94827 1138,359.13725 1138,612.00001 1138,902.50179 902.50178,1138 612,1138 382.47837,1138 187.292,990.99326 115.4612,786.00001 h 29.7121 C 215.7393,975.26248 398.11408,1110.0566 611.97168,1110.0566 887.02513,1110.0566 1110,887.08178 1110,612.02833 1110,371.74279 939.83234,171.20204 713.4339,124.34294 c 3.38311,-8.67845 6.1732,-17.65352 8.3205,-26.875426 z M 356.74203,151.97804 C 245.63536,213.76107 159.2504,314.62819 116.1665,436.00001 h 29.7788 C 188.101,324.45248 269.15706,232.00659 372.56443,175.21129 c -5.79958,-7.34247 -11.09138,-15.10456 -15.8224,-23.23325 z"
           id="Oval-13"
           fill="#a5a5a5"
           inkscape:label="Oval-13"
           style="display:inline" />
        <path
           d="M 97.467503,502.2456 C 147.94826,264.42668 359.13724,86 612,86 c 290.50178,0 526,235.49822 526,526 0,229.52163 -147.00675,424.708 -352,496.5388 v -29.7121 C 975.26247,1008.2607 1110.0566,825.88592 1110.0566,612.02832 1110.0566,336.97487 887.08177,114 612.02832,114 371.74278,114 171.20203,284.16766 124.34293,510.5661 c -8.67845,-3.38311 -17.65352,-6.1732 -26.875427,-8.3205 z M 151.97803,867.25797 C 213.76106,978.36464 314.62818,1064.7496 436,1107.8335 v -29.7788 C 324.45247,1035.899 232.00658,954.84294 175.21128,851.43557 c -7.34247,5.79958 -15.10456,11.09138 -23.23325,15.8224 z"
           id="path10"
           fill="#a5a5a5"
           inkscape:label="Oval-13"
           style="display:inline" />
      </g>
      <g
         id="magnifying-glass"
         transform="rotate(58,667.67618,1265.8905)"
         sketch:type="MSShapeGroup">
        <circle
           id="Oval-10"
           fill="#9b9b9b"
           transform="rotate(-49,592,592)"
           cx="592"
           cy="592"
           r="419" />
        <circle
           id="Oval-9"
           fill="url(#linearGradient-1)"
           transform="rotate(-49,597.02919,595.02919)"
           cx="597.02917"
           cy="595.02917"
           r="300.02917"
           style="fill:url(#linearGradient12)" />
        <circle
           id="circle7"
           fill="url(#linearGradient-1)"
           transform="rotate(-49,597.02919,595.02919)"
           cx="597.02917"
           cy="595.02917"
           r="300.02917"
           style="fill:url(#linearGradient13)" />
        <circle
           id="circle8"
           fill="url(#linearGradient-2)"
           transform="rotate(-49,597,595)"
           cx="597"
           cy="595"
           r="260"
           style="fill:url(#linearGradient-2)" />
      </g>
      <circle
         id="Oval-16"
         fill="#343434"
         sketch:type="MSShapeGroup"
         cx="824.5"
         cy="432.5"
         r="207.49486" />
      <path
         d="m 829.10336,570.20672 c 77.37695,0 140.10336,-62.72641 140.10336,-140.10336 C 969.20672,352.72641 906.48031,290 829.10336,290 751.72641,290 689,352.72641 689,430.10336 c 0,77.37695 62.72641,140.10336 140.10336,140.10336 z"
         id="Oval-20"
         fill="url(#radialGradient-3)"
         sketch:type="MSShapeGroup"
         style="fill:url(#radialGradient-3)" />
      <text
         id="a"
         sketch:type="MSTextLayer"
         font-family="Helvetica"
         font-size="700px"
         font-weight="bold"
         fill="#ffffff"><tspan
           x="1007"
           y="1030"
           id="tspan10">a</tspan></text>
      <path
         d="m 1180.4369,956.80437 c 0,-118.40103 -67.1714,-300.59185 -67.1714,-300.59185 0,0 139.7974,-4.35277 225.1579,65.44151 84.351,68.96902 114.4083,183.33507 109.6555,252.46312 -4.7529,69.12805 -47.4196,167.53495 -109.6555,216.06935 -96.17,74.9978 -215.3145,63.8823 -215.3145,63.8823 0,0 57.328,-178.8634 57.328,-297.26443 z"
         id="Rectangle-10"
         fill-opacity="0.09"
         fill="#000000"
         sketch:type="MSShapeGroup"
         transform="rotate(52,1280.9125,955.40446)" />
    </g>
  </g>
  <metadata
     id="metadata12">
    <rdf:RDF>
      <cc:Work
         rdf:about="">
        <dc:title>bbb_logo</dc:title>
      </cc:Work>
    </rdf:RDF>
  </metadata>
</svg>
